<svg xmlns="http://www.w3.org/2000/svg" xmlns:xlink="http://www.w3.org/1999/xlink" width="500" zoomAndPan="magnify" viewBox="0 0 375 374.999991" height="500" preserveAspectRatio="xMidYMid meet" version="1.2"><g id="efd54e006d"><rect x="0" width="375" y="0" height="374.999991" style="fill:#ffffff;fill-opacity:1;stroke:none;"/><rect x="0" width="375" y="0" height="374.999991" style="fill:#ffffff;fill-opacity:1;stroke:none;"/><path style=" stroke:none;fill-rule:nonzero;fill:#be51d4;fill-opacity:1;" d="M 61.53125 311.828125 C 58.535156 310.714844 55.152344 310.332031 52.15625 310.332031 C 51.398438 313.699219 51.398438 317.070312 52.15625 320.054688 C 53.28125 324.535156 55.523438 329.03125 58.90625 332.386719 C 62.273438 335.757812 66.398438 338 70.523438 339.496094 C 73.90625 340.242188 77.273438 340.625 80.65625 340.242188 C 80.65625 338.371094 80.65625 336.5 80.65625 335.015625 C 80.285156 332.773438 79.527344 330.902344 79.15625 328.660156 C 78.402344 327.164062 77.273438 325.292969 76.53125 323.421875 C 75.402344 321.921875 74.277344 320.425781 72.777344 318.9375 C 69.78125 315.570312 65.65625 313.328125 61.53125 311.828125 Z M 79.15625 121.53125 L 80.65625 121.53125 C 85.90625 120.777344 91.160156 118.546875 94.898438 115.167969 C 99.023438 112.179688 102.40625 107.699219 104.277344 102.84375 C 106.53125 97.605469 106.902344 92.363281 106.160156 87.136719 C 105.773438 85.269531 105.402344 83.398438 104.660156 81.144531 C 104.277344 81.898438 103.53125 82.65625 103.148438 83.398438 C 96.398438 91.992188 83.652344 96.847656 79.898438 107.328125 C 78.03125 111.808594 77.65625 116.675781 79.15625 121.53125 Z M 112.523438 164.148438 C 114.40625 164.148438 116.648438 164.148438 118.53125 163.777344 C 125.65625 163.023438 132.777344 160.410156 138.785156 155.925781 C 144.78125 151.058594 149.289062 145.089844 151.902344 138.351562 C 153.027344 134.996094 154.15625 131.253906 154.527344 127.515625 C 153.414062 128.257812 152.65625 128.640625 151.902344 129 C 136.902344 137.222656 117.777344 134.996094 112.910156 156.667969 C 112.523438 159.292969 112.152344 161.535156 112.523438 164.148438 Z M 111.78125 29.558594 C 109.527344 33.671875 107.65625 38.539062 107.285156 43.394531 C 132.777344 49.746094 138.402344 26.933594 153.414062 15.355469 L 154.15625 14.96875 C 151.160156 13.855469 148.160156 13.101562 145.152344 13.101562 C 138.785156 12.355469 132.035156 13.484375 126.027344 16.480469 C 120.03125 19.464844 115.152344 23.949219 111.78125 29.558594 Z M 123.03125 330.148438 C 123.402344 330.53125 123.785156 330.902344 124.15625 330.902344 C 127.527344 327.164062 129.78125 322.296875 130.535156 317.441406 C 131.664062 308.84375 126.410156 298.75 122.65625 290.515625 C 120.773438 292.382812 118.53125 296.882812 117.40625 299.121094 C 114.78125 304.347656 114.023438 309.957031 115.152344 315.570312 C 116.277344 321.550781 118.902344 326.40625 123.03125 330.148438 Z M 70.90625 271.082031 L 71.277344 271.082031 C 69.78125 265.101562 66.398438 259.863281 62.273438 256.121094 C 51.78125 246.785156 42.40625 250.140625 30.773438 245.65625 C 30.402344 245.65625 30.019531 245.65625 29.277344 245.285156 C 30.402344 249.394531 31.53125 253.136719 33.773438 256.121094 C 37.527344 262.101562 43.148438 266.96875 49.902344 269.953125 C 56.652344 272.582031 64.15625 272.953125 70.90625 271.082031 Z M 313.542969 311.828125 C 316.542969 310.714844 319.921875 310.332031 322.921875 310.332031 C 323.675781 313.699219 323.675781 317.070312 322.921875 320.054688 C 321.792969 324.535156 319.539062 329.03125 316.167969 332.386719 C 312.789062 335.757812 308.664062 338 304.539062 339.496094 C 301.167969 340.242188 297.789062 340.625 294.417969 340.242188 C 294.417969 338.371094 294.417969 336.5 294.417969 335.015625 C 294.792969 332.773438 295.546875 330.902344 296.289062 328.660156 C 296.671875 327.164062 297.789062 325.292969 298.542969 323.421875 C 299.671875 321.921875 300.796875 320.425781 302.296875 318.9375 C 305.296875 315.570312 309.417969 313.328125 313.542969 311.828125 Z M 295.917969 121.53125 L 294.417969 121.53125 C 289.167969 120.777344 283.917969 118.546875 280.164062 115.167969 C 276.039062 112.179688 272.667969 107.699219 270.785156 102.84375 C 268.542969 97.605469 268.171875 92.363281 268.917969 87.136719 C 269.289062 85.269531 269.671875 83.398438 270.414062 81.144531 C 270.785156 81.898438 271.542969 82.65625 271.914062 83.398438 C 278.664062 91.992188 291.421875 96.847656 295.164062 107.328125 C 297.046875 111.808594 297.417969 116.675781 295.917969 121.53125 Z M 262.539062 164.148438 C 260.667969 164.148438 258.414062 164.148438 256.542969 163.777344 C 249.421875 163.023438 242.285156 160.410156 236.289062 155.925781 C 230.296875 151.058594 225.789062 145.089844 223.160156 138.351562 C 222.035156 134.996094 220.917969 131.253906 220.917969 127.515625 C 221.664062 128.257812 222.417969 128.640625 223.160156 129 C 238.160156 137.222656 257.296875 134.996094 262.167969 156.667969 C 262.539062 159.292969 262.921875 161.535156 262.539062 164.148438 Z M 263.292969 29.558594 C 265.546875 33.671875 267.417969 38.539062 267.789062 43.394531 C 242.285156 49.746094 236.664062 26.933594 221.660156 15.355469 L 220.917969 14.96875 C 223.917969 13.855469 226.914062 13.101562 229.910156 13.101562 C 236.289062 12.355469 243.039062 13.484375 249.035156 16.480469 C 255.042969 19.464844 259.910156 23.949219 263.292969 29.558594 Z M 252.046875 330.148438 C 251.664062 330.53125 251.289062 330.902344 250.917969 330.902344 C 247.539062 327.164062 245.296875 322.296875 244.539062 317.441406 C 243.414062 308.84375 248.664062 298.75 252.417969 290.515625 C 254.289062 292.382812 256.542969 296.882812 257.667969 299.121094 C 260.296875 304.347656 261.039062 309.957031 259.910156 315.570312 C 258.796875 321.550781 256.171875 326.40625 252.046875 330.148438 Z M 304.167969 271.082031 L 303.796875 271.082031 C 305.296875 265.101562 308.664062 259.863281 312.789062 256.121094 C 323.292969 246.785156 332.667969 250.140625 344.300781 245.65625 C 344.671875 245.65625 345.042969 245.65625 345.796875 245.285156 C 344.671875 249.394531 343.542969 253.136719 341.304688 256.121094 C 337.550781 262.101562 331.925781 266.96875 325.175781 269.953125 C 318.425781 272.582031 310.917969 272.953125 304.167969 271.082031 Z M 282.789062 343.980469 C 279.417969 349.21875 274.925781 353.703125 270.042969 356.699219 C 264.035156 360.429688 257.667969 362.300781 250.546875 362.683594 C 243.796875 363.054688 237.046875 361.554688 231.039062 358.570312 C 225.042969 355.574219 219.789062 351.089844 216.039062 345.109375 L 215.667969 344.738281 C 222.417969 348.464844 230.292969 349.964844 238.160156 349.21875 C 246.792969 348.09375 254.289062 344.351562 260.296875 339.125 C 265.917969 333.515625 270.414062 326.035156 271.914062 317.8125 C 273.414062 309.585938 272.296875 301.363281 268.542969 293.882812 C 263.292969 282.675781 255.785156 278.550781 245.296875 273.324219 C 244.539062 293.882812 229.910156 296.882812 232.921875 318.9375 C 233.664062 325.292969 236.289062 331.273438 240.042969 336.5 C 238.917969 336.882812 237.789062 336.882812 237.046875 337.257812 C 231.039062 337.628906 225.414062 336.5 220.535156 333.886719 C 216.039062 331.273438 212.285156 327.164062 209.660156 322.292969 C 208.546875 311.085938 208.160156 287.902344 210.785156 277.808594 C 217.910156 253.507812 252.046875 252.765625 270.785156 264.34375 C 280.917969 270.710938 288.425781 279.304688 301.171875 282.675781 C 310.546875 285.289062 320.296875 284.53125 329.671875 280.804688 C 339.046875 277.0625 346.542969 270.710938 351.421875 262.472656 C 356.675781 254.621094 358.929688 244.914062 358.171875 234.820312 L 357.046875 224.722656 L 348.796875 230.324219 C 346.171875 232.191406 343.171875 233.320312 340.175781 234.433594 C 326.675781 239.300781 318.796875 234.816406 304.925781 247.152344 C 299.300781 252.007812 295.164062 258.363281 292.921875 265.84375 C 288.425781 263.230469 278.664062 251.265625 254.671875 245.65625 C 255.042969 245.285156 255.789062 244.914062 256.171875 244.527344 C 262.167969 238.929688 267.417969 232.5625 271.542969 225.839844 C 273.042969 222.855469 271.914062 219.113281 269.289062 217.617188 C 266.289062 215.746094 262.539062 216.871094 261.039062 219.859375 C 257.671875 225.46875 253.160156 231.078125 248.292969 235.5625 C 235.164062 246.78125 223.160156 246.398438 210.789062 257.246094 C 210.414062 257.621094 209.660156 257.992188 209.289062 258.363281 C 207.789062 240.417969 210.789062 220.984375 225.789062 209.390625 C 235.917969 200.796875 249.792969 198.542969 264.035156 202.285156 C 270.785156 203.78125 277.164062 206.777344 282.789062 210.890625 L 283.171875 211.261719 C 297.789062 219.859375 311.289062 224.726562 323.675781 224.726562 C 336.421875 224.726562 347.667969 220.230469 357.800781 210.890625 L 358.171875 210.507812 C 363.425781 204.910156 367.175781 197.800781 369.417969 190.320312 C 371.300781 182.851562 371.300781 174.988281 369.804688 167.148438 C 367.921875 159.292969 364.167969 152.1875 359.300781 146.203125 C 354.046875 140.605469 347.667969 135.738281 340.546875 133.125 C 337.921875 131.628906 334.921875 130.511719 331.542969 129.386719 C 336.421875 121.53125 339.046875 112.9375 339.792969 104.328125 C 340.546875 92.75 337.921875 80.785156 331.925781 70.308594 C 325.546875 59.84375 316.542969 51.988281 305.667969 47.121094 C 297.789062 43.394531 288.796875 41.523438 279.792969 41.894531 C 279.046875 35.160156 276.792969 28.804688 273.414062 23.195312 C 268.917969 16.097656 262.539062 9.746094 254.289062 5.632812 C 246.410156 1.894531 237.417969 0.0234375 228.785156 1.136719 C 222.035156 1.523438 211.160156 5.261719 201.410156 16.097656 C 218.664062 22.082031 220.917969 38.15625 235.917969 48.992188 C 238.917969 51.246094 241.914062 53.117188 245.296875 54.605469 C 243.414062 55.730469 241.914062 57.21875 240.417969 59.085938 C 232.167969 67.324219 226.542969 77.789062 224.289062 89.753906 C 223.917969 93.109375 225.789062 96.105469 229.167969 96.847656 C 232.539062 97.234375 235.535156 95.363281 236.292969 91.992188 C 237.789062 82.273438 242.285156 74.046875 248.664062 67.324219 C 255.417969 60.957031 263.664062 56.101562 273.414062 54.601562 C 282.789062 52.734375 292.550781 53.859375 300.800781 57.972656 C 309.421875 61.710938 316.542969 68.066406 321.421875 76.289062 C 326.292969 84.523438 328.546875 94.234375 327.800781 103.203125 C 327.046875 111.4375 324.421875 119.289062 319.539062 126.015625 C 316.171875 125.273438 312.046875 124.144531 307.921875 123.402344 C 309.417969 116.675781 309.046875 109.566406 306.792969 103.203125 C 301.914062 90.125 277.167969 80.785156 268.546875 62.082031 L 265.917969 65.453125 C 261.039062 71.433594 258.042969 78.160156 256.914062 85.269531 C 255.789062 92.75 256.542969 100.21875 259.539062 106.941406 C 262.167969 114.050781 266.664062 120.035156 272.671875 124.515625 C 278.292969 129 285.042969 132.382812 292.550781 133.125 C 303.042969 134.609375 311.675781 136.480469 319.167969 137.980469 C 325.917969 139.851562 331.542969 141.71875 335.296875 143.589844 L 335.667969 143.960938 C 341.304688 146.203125 346.171875 149.570312 349.921875 154.054688 C 353.675781 158.539062 356.675781 163.777344 357.800781 169.761719 C 359.300781 175.742188 359.300781 181.722656 357.800781 187.335938 C 356.300781 192.945312 353.292969 197.800781 349.167969 202.28125 C 342.417969 208.636719 334.167969 212.375 325.546875 212.761719 C 326.289062 212.003906 326.675781 211.632812 327.046875 210.890625 C 332.667969 205.28125 336.050781 197.429688 336.050781 188.832031 C 335.667969 180.238281 332.296875 172.371094 326.675781 166.761719 C 320.667969 160.410156 312.789062 157.421875 304.167969 156.667969 C 292.550781 155.554688 285.042969 158.167969 274.539062 161.535156 C 274.539062 159.292969 274.539062 156.667969 273.796875 154.441406 C 267.789062 126.769531 247.921875 129 228.785156 118.546875 C 225.414062 116.675781 222.417969 114.421875 219.421875 111.4375 L 211.15625 103.957031 L 209.285156 114.808594 C 207.789062 124.515625 208.542969 134.238281 212.285156 142.835938 C 215.667969 151.441406 221.289062 159.292969 229.167969 165.277344 C 236.660156 171.257812 246.039062 174.628906 255.414062 175.742188 C 259.539062 176.113281 264.035156 176.113281 268.542969 175.742188 C 281.660156 173.871094 288.421875 167.148438 303.039062 168.632812 C 309.046875 169.015625 314.300781 170.886719 318.039062 174.984375 C 321.792969 178.726562 323.675781 183.59375 324.046875 188.832031 C 324.046875 194.058594 321.792969 199.300781 318.421875 202.667969 C 315.042969 206.394531 310.917969 208.636719 306.050781 209.019531 C 300.796875 207.148438 295.160156 204.523438 289.539062 200.796875 C 282.789062 196.300781 274.921875 192.5625 267.042969 190.703125 C 253.542969 186.949219 244.167969 186.949219 232.164062 191.816406 C 232.164062 189.574219 232.164062 186.949219 231.792969 184.722656 C 230.664062 179.855469 228.78125 175.742188 225.785156 172 C 222.789062 168.273438 219.035156 165.648438 214.539062 163.40625 C 211.539062 162.277344 208.160156 163.40625 206.660156 166.402344 C 205.535156 169.386719 206.660156 173.117188 209.660156 174.625 C 212.285156 175.742188 214.539062 177.238281 216.410156 179.480469 C 228.410156 194.429688 212.285156 203.78125 205.917969 213.875 C 195.042969 231.820312 195.785156 254.621094 199.167969 274.820312 C 195.785156 287.898438 196.15625 313.328125 198.039062 327.160156 C 200.664062 344.351562 207.03125 360.054688 225.414062 369.035156 C 233.292969 373.148438 242.285156 375.015625 251.289062 374.644531 C 260.292969 374.261719 268.914062 371.648438 276.421875 367.164062 C 282.414062 363.054688 287.667969 358.1875 291.792969 351.832031 C 297.042969 352.589844 302.667969 352.203125 307.546875 351.089844 C 313.914062 349.21875 320.292969 345.480469 324.789062 340.625 C 329.671875 335.382812 333.039062 329.402344 334.550781 322.679688 C 336.050781 316.3125 335.664062 309.214844 333.421875 302.859375 L 332.296875 299.121094 L 328.542969 298.75 C 322.164062 297.621094 315.796875 298.367188 309.789062 300.234375 C 303.796875 302.476562 298.171875 305.84375 293.664062 310.710938 C 291.792969 312.582031 289.921875 314.824219 288.421875 317.4375 C 286.914062 319.679688 285.796875 322.292969 284.671875 324.917969 C 283.914062 327.53125 283.171875 330.527344 282.789062 333.511719 C 282.417969 336.5 282.417969 339.496094 282.417969 342.492188 C 282.417969 342.867188 282.789062 343.609375 282.789062 343.980469 Z M 229.167969 57.972656 C 229.167969 52.730469 225.042969 48.632812 220.164062 48.632812 C 214.910156 48.632812 210.789062 52.730469 210.789062 57.972656 C 210.789062 63.210938 214.910156 67.320312 220.164062 67.320312 C 225.042969 67.324219 229.167969 63.210938 229.167969 57.972656 Z M 164.289062 57.972656 C 164.289062 52.730469 160.164062 48.632812 154.910156 48.632812 C 150.03125 48.632812 145.90625 52.730469 145.90625 57.972656 C 145.90625 63.210938 150.03125 67.320312 154.910156 67.320312 C 160.164062 67.324219 164.289062 63.210938 164.289062 57.972656 Z M 292.164062 240.046875 C 292.164062 234.820312 288.039062 230.707031 282.789062 230.707031 C 277.539062 230.707031 273.414062 234.820312 273.414062 240.046875 C 273.414062 245.285156 277.539062 249.394531 282.789062 249.394531 C 288.039062 249.394531 292.164062 245.285156 292.164062 240.046875 Z M 101.652344 240.046875 C 101.652344 234.820312 97.527344 230.707031 92.273438 230.707031 C 87.035156 230.707031 82.910156 234.820312 82.910156 240.046875 C 82.910156 245.285156 87.035156 249.394531 92.273438 249.394531 C 97.527344 249.394531 101.652344 245.285156 101.652344 240.046875 Z M 27.40625 121.160156 C 27.40625 115.921875 23.269531 111.808594 18.03125 111.808594 C 12.777344 111.808594 8.652344 115.921875 8.652344 121.160156 C 8.652344 126.386719 12.777344 130.511719 18.03125 130.511719 C 23.269531 130.511719 27.40625 126.386719 27.40625 121.160156 Z M 366.421875 121.160156 C 366.421875 115.921875 362.296875 111.808594 357.046875 111.808594 C 351.792969 111.808594 347.667969 115.921875 347.667969 121.160156 C 347.667969 126.386719 351.792969 130.511719 357.046875 130.511719 C 362.296875 130.511719 366.421875 126.386719 366.421875 121.160156 Z M 307.164062 24.320312 C 307.164062 19.09375 303.039062 14.972656 297.789062 14.972656 C 292.550781 14.972656 288.425781 19.09375 288.425781 24.320312 C 288.425781 29.5625 292.550781 33.671875 297.789062 33.671875 C 303.039062 33.671875 307.164062 29.558594 307.164062 24.320312 Z M 87.035156 24.320312 C 87.035156 19.09375 82.523438 14.972656 77.273438 14.972656 C 72.40625 14.972656 67.898438 19.09375 67.898438 24.320312 C 67.898438 29.5625 72.40625 33.671875 77.273438 33.671875 C 82.523438 33.671875 87.035156 29.558594 87.035156 24.320312 Z M 97.910156 294.253906 C 97.910156 289.027344 93.402344 284.917969 88.148438 284.917969 C 83.28125 284.917969 78.773438 289.027344 78.773438 294.253906 C 78.773438 299.496094 83.28125 303.605469 88.148438 303.605469 C 93.402344 303.605469 97.910156 299.492188 97.910156 294.253906 Z M 296.289062 294.253906 C 296.289062 289.027344 291.792969 284.917969 286.914062 284.917969 C 281.660156 284.917969 277.164062 289.027344 277.164062 294.253906 C 277.164062 299.496094 281.660156 303.605469 286.914062 303.605469 C 291.792969 303.605469 296.289062 299.492188 296.289062 294.253906 Z M 361.171875 292.011719 C 361.171875 286.785156 357.046875 282.675781 351.792969 282.675781 C 346.542969 282.675781 342.417969 286.785156 342.417969 292.011719 C 342.417969 297.253906 346.542969 301.363281 351.792969 301.363281 C 357.046875 301.363281 361.171875 297.253906 361.171875 292.011719 Z M 32.644531 292.011719 C 32.644531 286.785156 28.519531 282.675781 23.269531 282.675781 C 18.03125 282.675781 13.90625 286.785156 13.90625 292.011719 C 13.90625 297.253906 18.03125 301.363281 23.269531 301.363281 C 28.519531 301.363281 32.644531 297.253906 32.644531 292.011719 Z M 92.273438 343.980469 C 95.65625 349.21875 100.152344 353.703125 105.03125 356.699219 C 111.027344 360.429688 117.40625 362.300781 124.527344 362.683594 C 131.277344 363.054688 138.027344 361.554688 144.035156 358.570312 C 150.03125 355.574219 155.28125 351.089844 159.035156 345.109375 L 159.40625 344.738281 C 152.65625 348.464844 144.777344 349.964844 136.902344 349.21875 C 128.28125 348.09375 120.773438 344.351562 114.777344 339.125 C 109.15625 333.515625 104.660156 326.035156 103.148438 317.8125 C 101.648438 309.585938 102.777344 301.363281 106.53125 293.882812 C 112.152344 282.675781 119.273438 278.550781 129.777344 273.324219 C 130.535156 293.882812 145.148438 296.882812 142.152344 318.9375 C 141.410156 325.292969 138.785156 331.273438 135.03125 336.5 C 136.160156 336.882812 137.285156 336.882812 138.027344 337.257812 C 144.035156 337.628906 149.660156 336.5 154.527344 333.886719 C 159.035156 331.273438 162.777344 327.164062 165.402344 322.292969 C 166.53125 311.085938 166.914062 287.902344 164.289062 277.808594 C 157.152344 253.507812 123.027344 252.765625 104.273438 264.34375 C 94.15625 270.710938 86.648438 279.304688 73.902344 282.675781 C 64.527344 285.289062 54.777344 284.53125 45.402344 280.804688 C 36.027344 277.0625 28.519531 270.710938 23.652344 262.472656 C 18.402344 254.621094 16.144531 244.914062 16.902344 234.820312 L 18.027344 224.722656 L 26.277344 230.324219 C 28.90625 232.191406 31.902344 233.320312 34.898438 234.433594 C 48.402344 239.300781 56.277344 234.816406 70.152344 247.152344 C 75.773438 252.007812 79.898438 258.363281 82.152344 265.84375 C 87.035156 263.230469 96.398438 251.265625 120.402344 245.65625 C 120.03125 245.285156 119.273438 244.914062 118.902344 244.527344 C 112.910156 238.929688 107.65625 232.5625 103.53125 225.839844 C 102.035156 222.855469 103.148438 219.113281 105.773438 217.617188 C 108.785156 215.746094 112.527344 216.871094 114.023438 219.859375 C 117.40625 225.46875 121.902344 231.078125 126.78125 235.5625 C 139.910156 246.78125 151.902344 246.398438 164.289062 257.246094 C 164.660156 257.621094 165.402344 257.992188 165.785156 258.363281 C 167.285156 240.417969 164.289062 220.984375 149.289062 209.390625 C 139.15625 200.796875 125.28125 198.542969 111.027344 202.285156 C 104.273438 203.78125 97.910156 206.777344 92.273438 210.890625 L 91.902344 211.261719 C 77.273438 219.859375 63.773438 224.726562 51.398438 224.726562 C 38.652344 224.726562 27.40625 220.230469 17.273438 210.890625 L 16.902344 210.507812 C 11.648438 204.910156 7.898438 197.800781 5.640625 190.320312 C 3.773438 182.851562 3.773438 174.988281 5.269531 167.148438 C 7.152344 159.292969 10.894531 152.1875 15.773438 146.203125 C 21.027344 140.605469 27.40625 135.738281 34.527344 133.125 C 37.152344 131.628906 40.148438 130.511719 43.519531 129.386719 C 38.652344 121.53125 36.027344 112.9375 35.269531 104.328125 C 34.527344 92.75 37.152344 80.785156 43.148438 70.308594 C 49.527344 59.84375 58.53125 51.988281 69.40625 47.121094 C 77.273438 43.394531 86.277344 41.523438 95.285156 41.894531 C 96.027344 35.160156 98.28125 28.804688 101.648438 23.195312 C 106.160156 16.097656 112.523438 9.746094 120.773438 5.632812 C 128.652344 1.894531 137.65625 0.0234375 146.277344 1.136719 C 153.027344 1.523438 163.902344 5.261719 173.664062 16.097656 C 156.410156 22.082031 154.15625 38.15625 139.15625 48.992188 C 136.160156 51.246094 133.160156 53.117188 129.78125 54.605469 C 131.664062 55.730469 133.160156 57.21875 134.660156 59.085938 C 142.910156 67.324219 148.53125 77.789062 150.789062 89.753906 C 151.160156 93.109375 149.289062 96.105469 145.90625 96.847656 C 142.539062 97.234375 139.527344 95.363281 138.785156 91.992188 C 137.289062 82.273438 132.777344 74.046875 126.410156 67.324219 C 119.660156 60.957031 111.410156 56.101562 101.652344 54.601562 C 92.273438 52.734375 82.527344 53.859375 74.277344 57.972656 C 65.65625 61.710938 58.535156 68.066406 53.652344 76.289062 C 48.773438 84.523438 46.53125 94.234375 47.273438 103.203125 C 48.03125 111.4375 50.65625 119.289062 55.523438 126.015625 C 58.90625 125.273438 63.03125 124.144531 67.15625 123.402344 C 65.65625 116.675781 66.027344 109.566406 68.28125 103.203125 C 73.148438 90.125 97.910156 80.785156 106.53125 62.082031 L 109.15625 65.453125 C 114.023438 71.433594 117.035156 78.160156 118.164062 85.269531 C 119.277344 92.75 118.535156 100.21875 115.535156 106.941406 C 112.910156 114.050781 108.402344 120.035156 102.40625 124.515625 C 96.785156 129 90.03125 132.382812 82.527344 133.125 C 72.023438 134.609375 63.402344 136.480469 55.910156 137.980469 C 49.15625 139.851562 43.523438 141.71875 39.78125 143.589844 L 39.398438 143.960938 C 33.773438 146.203125 28.90625 149.570312 25.152344 154.054688 C 21.398438 158.539062 18.402344 163.777344 17.273438 169.761719 C 15.777344 175.742188 15.777344 181.722656 17.273438 187.335938 C 18.773438 192.945312 21.769531 197.800781 25.894531 202.28125 C 32.648438 208.636719 40.910156 212.375 49.53125 212.761719 C 48.773438 212.003906 48.402344 211.632812 48.03125 210.890625 C 42.40625 205.28125 39.027344 197.429688 39.027344 188.832031 C 39.398438 180.238281 42.777344 172.371094 48.402344 166.761719 C 54.398438 160.410156 62.273438 157.421875 70.910156 156.667969 C 82.527344 155.554688 90.402344 158.167969 100.535156 161.535156 C 100.535156 159.292969 100.90625 156.667969 101.28125 154.441406 C 107.289062 126.769531 127.15625 129 146.277344 118.546875 C 149.660156 116.675781 152.660156 114.421875 155.65625 111.4375 L 163.90625 103.957031 L 165.789062 114.808594 C 167.285156 124.515625 166.53125 134.238281 163.160156 142.835938 C 159.410156 151.441406 153.785156 159.292969 145.90625 165.277344 C 138.402344 171.257812 129.039062 174.628906 119.660156 175.742188 C 115.535156 176.113281 111.027344 176.113281 106.53125 175.742188 C 93.402344 173.871094 86.652344 167.148438 72.023438 168.632812 C 66.027344 169.015625 60.773438 170.886719 57.023438 174.984375 C 53.28125 178.726562 51.398438 183.59375 51.027344 188.832031 C 51.027344 194.058594 53.28125 199.300781 56.648438 202.667969 C 60.03125 206.394531 64.15625 208.636719 69.023438 209.019531 C 74.277344 207.148438 79.898438 204.523438 85.523438 200.796875 C 92.273438 196.300781 100.152344 192.5625 108.027344 190.703125 C 121.53125 186.949219 130.90625 186.949219 142.910156 191.816406 C 142.910156 189.574219 142.910156 186.949219 143.28125 184.722656 C 144.40625 179.855469 146.277344 175.742188 149.289062 172 C 152.285156 168.273438 156.039062 165.648438 160.535156 163.40625 C 163.53125 162.277344 166.914062 163.40625 168.414062 166.402344 C 169.527344 169.386719 168.414062 173.117188 165.402344 174.625 C 162.777344 175.742188 160.535156 177.238281 158.652344 179.480469 C 146.660156 194.429688 162.777344 203.78125 169.15625 213.875 C 180.03125 231.820312 179.660156 254.621094 175.90625 274.820312 C 179.289062 287.898438 178.902344 313.328125 177.03125 327.160156 C 174.40625 344.351562 168.027344 360.054688 149.660156 369.035156 C 141.78125 373.148438 132.777344 375.015625 123.785156 374.644531 C 114.777344 374.261719 106.15625 371.648438 98.652344 367.164062 C 92.65625 363.054688 87.40625 358.1875 83.28125 351.832031 C 78.027344 352.589844 72.40625 352.203125 67.523438 351.089844 C 61.144531 349.21875 55.152344 345.480469 50.269531 340.625 C 45.402344 335.382812 42.023438 329.402344 40.523438 322.679688 C 39.023438 316.3125 39.394531 309.214844 41.648438 302.859375 L 42.777344 299.121094 L 46.53125 298.75 C 52.898438 297.621094 59.277344 298.367188 65.285156 300.234375 C 71.277344 302.476562 76.902344 305.84375 81.398438 310.710938 C 83.28125 312.582031 85.152344 314.824219 86.648438 317.4375 C 88.148438 319.679688 89.277344 322.292969 90.402344 324.917969 C 91.160156 327.53125 91.902344 330.527344 92.273438 333.511719 C 92.65625 336.5 92.65625 339.496094 92.65625 342.492188 C 92.65625 342.867188 92.273438 343.609375 92.273438 343.980469 Z M 92.273438 343.980469 "/></g></svg>